<svg id="visual" viewBox="0 0 900 900" width="900" height="900" xmlns="http://www.w3.org/2000/svg" xmlns:xlink="http://www.w3.org/1999/xlink" version="1.1"><rect x="0" y="0" width="900" height="900" fill="#0c4a0c"></rect><path d="M0 697L82 703L164 711L245 689L327 597L409 692L491 684L573 671L655 647L736 692L818 599L900 645L900 901L818 901L736 901L655 901L573 901L491 901L409 901L327 901L245 901L164 901L82 901L0 901Z" fill="#cfa5a2"></path><path d="M0 668L82 727L164 686L245 704L327 722L409 708L491 646L573 626L655 686L736 662L818 666L900 656L900 901L818 901L736 901L655 901L573 901L491 901L409 901L327 901L245 901L164 901L82 901L0 901Z" fill="#d59b9d"></path><path d="M0 706L82 707L164 695L245 692L327 730L409 719L491 745L573 708L655 738L736 664L818 644L900 705L900 901L818 901L736 901L655 901L573 901L491 901L409 901L327 901L245 901L164 901L82 901L0 901Z" fill="#d9919b"></path><path d="M0 667L82 729L164 692L245 677L327 667L409 703L491 697L573 702L655 710L736 731L818 731L900 734L900 901L818 901L736 901L655 901L573 901L491 901L409 901L327 901L245 901L164 901L82 901L0 901Z" fill="#dc869c"></path><path d="M0 730L82 753L164 760L245 731L327 739L409 727L491 770L573 755L655 742L736 731L818 738L900 772L900 901L818 901L736 901L655 901L573 901L491 901L409 901L327 901L245 901L164 901L82 901L0 901Z" fill="#dc7ca0"></path><path d="M0 773L82 773L164 720L245 714L327 717L409 760L491 758L573 785L655 729L736 751L818 787L900 746L900 901L818 901L736 901L655 901L573 901L491 901L409 901L327 901L245 901L164 901L82 901L0 901Z" fill="#db72a7"></path><path d="M0 774L82 782L164 756L245 795L327 776L409 798L491 792L573 736L655 775L736 788L818 803L900 795L900 901L818 901L736 901L655 901L573 901L491 901L409 901L327 901L245 901L164 901L82 901L0 901Z" fill="#d669b0"></path><path d="M0 789L82 765L164 782L245 811L327 813L409 798L491 791L573 803L655 760L736 773L818 772L900 806L900 901L818 901L736 901L655 901L573 901L491 901L409 901L327 901L245 901L164 901L82 901L0 901Z" fill="#ce61bb"></path><path d="M0 797L82 786L164 814L245 828L327 789L409 787L491 794L573 819L655 786L736 819L818 818L900 817L900 901L818 901L736 901L655 901L573 901L491 901L409 901L327 901L245 901L164 901L82 901L0 901Z" fill="#c25cc7"></path><path d="M0 808L82 825L164 819L245 811L327 835L409 835L491 816L573 825L655 825L736 807L818 808L900 807L900 901L818 901L736 901L655 901L573 901L491 901L409 901L327 901L245 901L164 901L82 901L0 901Z" fill="#b05ad5"></path><path d="M0 848L82 846L164 858L245 853L327 849L409 833L491 856L573 830L655 849L736 835L818 857L900 860L900 901L818 901L736 901L655 901L573 901L491 901L409 901L327 901L245 901L164 901L82 901L0 901Z" fill="#975ae3"></path><path d="M0 858L82 874L164 856L245 860L327 864L409 856L491 857L573 874L655 855L736 874L818 869L900 869L900 901L818 901L736 901L655 901L573 901L491 901L409 901L327 901L245 901L164 901L82 901L0 901Z" fill="#715df2"></path></svg>